<svg width="21" height="20" viewBox="0 0 21 20" fill="none" xmlns="http://www.w3.org/2000/svg">
<path d="M6.13202 0.503998L2.42002 7H1.00002C0.846315 7.00017 0.694715 7.03573 0.55697 7.10393C0.419226 7.17213 0.299037 7.27113 0.20572 7.39327C0.112403 7.5154 0.0484649 7.65738 0.0188624 7.80821C-0.0107401 7.95904 -0.00521182 8.11465 0.0350183 8.263L2.83402 18.526C2.95004 18.9491 3.20168 19.3224 3.55031 19.5886C3.89895 19.8549 4.32533 19.9994 4.76402 20H15.237C16.135 20 16.929 19.395 17.167 18.525L19.966 8.262C20.0067 8.1136 20.0126 7.9578 19.9831 7.80677C19.9536 7.65574 19.8896 7.51358 19.7961 7.39138C19.7025 7.26919 19.582 7.17028 19.4439 7.10239C19.3058 7.03449 19.1539 6.99945 19 7H17.58L13.868 0.503998L12.132 1.496L15.277 7H4.72302L7.86802 1.496L6.13202 0.503998V0.503998ZM12 11H14V16H12V11ZM6.00002 11H8.00002V16H6.00002V11Z" fill="#C4C4C4" fill-opacity="0.4"/>
</svg>
